<svg fill="#FFFFFF" xmlns="http://www.w3.org/2000/svg" xmlns:xlink="http://www.w3.org/1999/xlink" viewBox="0 0 100 100" version="1.1" x="0px" y="0px"><title>Google Cardboard</title><desc>Created with Sketch.</desc><g stroke="none" stroke-width="1" fill="none" fill-rule="evenodd"><g fill="#FFFFFF" fill-rule="nonzero"><path d="M18.9999794,32 C17.3431251,32 15.9999794,33.3431458 15.9999794,35.0000001 L15.9999779,72.0000085 C15.9999784,73.6568628 17.3431245,75.0000081 18.9999786,75.0000077 L35.9746431,75.0000012 C37.3300801,75.0000008 38.5171504,74.0911398 38.8707568,72.7826407 C41.6316519,62.5660632 45.4031126,57.1771975 50.6885865,57.1771975 C55.9740601,57.1771975 59.7455207,62.5660628 62.5064158,72.7826393 C62.8600216,74.0911429 64.0470939,75.0000059 65.4025339,75.0000063 L82.0000224,75.0000077 C83.6568767,75.0000077 85.0000224,73.6568619 85.0000224,72.0000077 L85.0000209,35 C85.0000209,33.3431458 83.6568752,32 82.0000209,32 L18.9999794,32 Z M18.9999794,30 L82.0000209,30 C84.7614447,30 87.0000209,32.2385763 87.0000209,35 L87.0000224,72.0000077 C87.0000224,74.7614314 84.7614462,77.0000077 82.0000224,77.0000077 L65.4025338,77.0000063 C63.1434679,77.0000056 61.1650154,75.4852351 60.5756727,73.3043971 C58.0305464,63.886264 54.734851,59.1771975 50.6885865,59.1771975 C46.6423217,59.1771975 43.3466262,63.8862645 40.8014998,73.3043985 C40.2121554,75.4852323 38.2337061,77.0000005 35.9746437,77.0000012 L18.9999794,77.0000077 C16.2385556,77.0000085 13.9999787,74.7614329 13.9999779,72.0000091 L13.9999794,35 C13.9999794,32.2385763 16.2385556,30 18.9999794,30 Z"></path><path d="M67,60 C62.0294373,60 58,55.9705627 58,51 C58,46.0294373 62.0294373,42 67,42 C71.9705627,42 76,46.0294373 76,51 C76,55.9705627 71.9705627,60 67,60 Z M67,58 C70.8659932,58 74,54.8659932 74,51 C74,47.1340068 70.8659932,44 67,44 C63.1340068,44 60,47.1340068 60,51 C60,54.8659932 63.1340068,58 67,58 Z"></path><path d="M34,60 C29.0294373,60 25,55.9705627 25,51 C25,46.0294373 29.0294373,42 34,42 C38.9705627,42 43,46.0294373 43,51 C43,55.9705627 38.9705627,60 34,60 Z M34,58 C37.8659932,58 41,54.8659932 41,51 C41,47.1340068 37.8659932,44 34,44 C30.1340068,44 27,47.1340068 27,51 C27,54.8659932 30.1340068,58 34,58 Z"></path><path d="M22,30 L79,30 L79,28 C79,27.4477153 78.5522847,27 78,27 L23,27 C22.4477153,27 22,27.4477153 22,28 L22,30 Z M23,25 L78,25 C79.6568542,25 81,26.3431458 81,28 L81,32 L20,32 L20,28 C20,26.3431458 21.3431458,25 23,25 Z"></path><polygon points="41.1014776 72.8661787 41.1014776 70.8661787 60.5760912 70.8661787 60.5760912 72.8661787"></polygon></g></g></svg>